<?xml version="1.0" standalone="no"?>
<!DOCTYPE svg PUBLIC "-//W3C//DTD SVG 20010904//EN"
 "http://www.w3.org/TR/2001/REC-SVG-20010904/DTD/svg10.dtd">
<svg version="1.0" xmlns="http://www.w3.org/2000/svg"
 width="128.000000pt" height="128.000000pt" viewBox="0 0 128.000000 128.000000"
 preserveAspectRatio="xMidYMid meet">
<metadata>
Created by potrace 1.11, written by Peter Selinger 2001-2013
</metadata>
<g transform="translate(0.000000,128.000000) scale(0.100000,-0.100000)"
fill="#000000" stroke="none">
<path d="M613 1224 c0 -16 6 -17 25 -5 11 6 9 9 -5 13 -12 3 -20 0 -20 -8z"/>
<path d="M601 1196 c15 -16 19 -17 45 -2 16 8 25 15 21 16 -5 0 -17 -5 -28
-11 -15 -8 -25 -7 -37 2 -16 12 -16 12 -1 -5z"/>
<path d="M586 1180 c10 -15 11 -96 1 -107 -8 -7 -27 6 -27 18 0 6 5 7 10 4 6
-3 10 -1 10 4 0 6 -5 11 -11 11 -8 0 -8 4 -2 13 12 14 13 48 2 41 -5 -2 -5
-12 -2 -21 4 -9 2 -14 -3 -10 -6 3 -10 -12 -9 -38 0 -31 6 -48 19 -58 17 -13
17 -14 -11 -14 -28 0 -29 2 -28 44 1 24 1 43 0 43 -2 0 -9 -8 -16 -17 -12 -14
-12 -16 0 -9 9 6 12 5 9 -5 -3 -8 -12 -13 -19 -11 -8 1 -6 -4 5 -13 11 -8 16
-18 13 -22 -4 -4 -13 -1 -19 5 -7 7 -17 12 -23 12 -5 0 -3 -4 5 -10 12 -8 12
-10 -3 -16 -9 -3 -17 -10 -17 -15 0 -4 7 -5 17 -2 10 4 14 2 10 -4 -9 -15 8
-19 73 -19 38 1 54 5 52 14 -1 6 5 12 13 12 21 0 19 -18 -4 -32 -15 -9 -17
-15 -9 -25 7 -9 7 -13 -1 -13 -6 0 -14 7 -17 15 -4 8 -11 15 -17 15 -5 0 -2
-9 8 -20 10 -11 16 -23 13 -26 -3 -3 -15 6 -26 20 -11 15 -24 26 -28 26 -4 0
-3 -5 4 -12 18 -18 14 -32 -5 -17 -11 10 -14 10 -9 2 4 -8 2 -13 -5 -13 -6 0
-9 8 -6 20 3 11 1 20 -4 20 -5 0 -9 -4 -9 -10 0 -5 -5 -10 -11 -10 -5 0 -7 5
-4 10 3 6 1 11 -4 11 -6 1 -15 3 -21 4 -5 1 -15 3 -21 4 -5 0 -8 5 -5 9 2 4
-8 8 -24 7 -15 0 -26 -3 -24 -7 2 -3 -5 -10 -16 -13 -16 -5 -19 -10 -10 -20 9
-11 7 -14 -9 -12 -13 1 -20 6 -17 14 8 19 -4 16 -22 -7 -19 -23 -66 -37 -59
-17 3 7 10 11 17 9 7 -1 18 2 26 9 11 9 10 14 -8 29 -12 10 -27 16 -33 14 -6
-3 -11 5 -12 16 -2 22 2 21 47 -12 14 -9 34 -16 45 -13 11 2 24 4 28 4 5 1 5
6 2 11 -3 6 -1 10 6 10 7 0 9 3 5 7 -4 5 -13 1 -19 -7 -7 -8 -21 -16 -32 -18
-17 -2 -15 2 10 24 17 14 24 23 16 19 -7 -4 -17 -2 -23 6 -8 11 -9 11 -5 -2 4
-12 -2 -16 -25 -16 l-31 0 21 18 c26 21 27 25 6 33 -9 3 -12 2 -9 -5 4 -5 1
-16 -5 -24 -15 -18 -34 -20 -23 -2 10 16 11 57 1 51 -4 -3 -8 0 -8 7 0 7 -3
10 -6 7 -3 -4 -1 -15 5 -26 8 -16 6 -25 -10 -46 -12 -15 -24 -25 -27 -22 -3 3
3 15 12 25 13 14 15 24 8 38 -5 10 -8 25 -5 33 2 9 -1 8 -9 -4 -7 -10 -21 -28
-30 -40 l-17 -21 2 22 c1 12 7 25 15 28 8 3 12 12 9 19 -3 8 -3 17 1 19 4 2 0
2 -8 -1 -8 -2 -24 -5 -34 -6 -19 -1 -33 -36 -14 -36 6 0 7 7 4 16 -4 10 -1 14
6 12 7 -3 13 -21 13 -41 0 -25 -4 -36 -12 -33 -6 3 -17 -2 -23 -10 -10 -11 -9
-18 1 -31 12 -15 12 -16 -6 -9 -11 4 -16 4 -12 0 4 -4 1 -14 -6 -23 -9 -12 -6
-12 16 2 36 23 70 30 64 14 -2 -7 -12 -12 -22 -12 -10 0 -19 -6 -21 -13 -1 -7
0 -8 3 -2 2 5 9 10 14 10 6 0 7 -4 4 -10 -3 -5 -2 -10 3 -10 6 0 12 7 16 15 3
8 11 15 17 15 8 0 8 -4 -1 -15 -9 -11 -9 -15 -1 -15 7 0 23 -11 37 -25 19 -20
23 -29 15 -44 -6 -10 -8 -30 -6 -44 4 -19 -1 -30 -17 -41 -30 -21 -38 -20 -33
5 2 12 0 29 -5 39 -7 13 -4 25 11 44 12 15 24 25 27 22 3 -3 -3 -15 -12 -25
-13 -14 -15 -24 -8 -38 5 -10 7 -24 4 -32 -2 -8 0 -11 5 -8 6 4 11 18 11 32 0
13 -4 22 -9 19 -15 -9 -10 6 6 23 20 19 14 39 -10 35 -10 -2 -14 1 -10 7 7 12
4 13 -38 15 -16 1 -32 8 -37 16 -6 8 -10 10 -10 4 0 -6 7 -17 15 -24 20 -17
19 -25 -5 -27 -11 -1 -18 2 -15 8 3 5 1 17 -5 26 -9 15 -10 14 -4 -6 4 -17 3
-21 -6 -16 -8 5 -11 4 -7 -1 3 -6 2 -16 -3 -24 -7 -11 -1 -21 18 -37 26 -21
26 -22 4 -20 -12 1 -22 5 -22 10 0 4 -5 5 -11 1 -16 -10 8 -23 38 -19 32 3 49
-27 26 -46 -14 -12 -15 -11 -10 11 4 14 4 19 1 13 -3 -7 -10 -13 -15 -13 -6 0
-7 5 -4 10 3 6 1 10 -4 10 -16 0 -14 -11 5 -32 19 -20 27 -151 10 -145 -6 2
-11 31 -11 65 0 43 -6 66 -18 80 -9 10 -14 22 -10 25 3 4 2 7 -4 7 -6 0 -13
-9 -16 -19 -3 -12 0 -18 7 -15 7 3 12 -4 12 -16 0 -14 -5 -19 -14 -15 -11 4
-11 0 2 -20 9 -14 14 -30 11 -35 -3 -5 0 -7 7 -5 9 4 14 -2 15 -16 2 -17 -1
-18 -13 -9 -8 7 -14 8 -14 4 0 -5 9 -15 20 -22 11 -7 20 -17 20 -23 0 -5 -5
-7 -10 -4 -6 4 -22 -1 -35 -9 -30 -20 -34 -3 -4 17 l21 15 -21 7 c-12 3 -21
11 -21 16 0 6 5 7 10 4 6 -3 10 -1 10 5 0 7 -6 10 -12 7 -7 -2 -13 -11 -13
-20 0 -9 -6 -22 -12 -28 -10 -10 -9 -17 5 -33 16 -18 16 -19 -2 -13 -18 7 -18
6 -2 -17 21 -33 21 -35 -9 -46 -14 -5 -25 -15 -25 -22 0 -10 2 -10 8 -1 10 16
65 26 59 10 -2 -7 -12 -11 -21 -9 -9 2 -19 -4 -22 -12 -3 -9 -9 -14 -13 -12
-4 3 -7 -4 -7 -14 0 -11 2 -17 4 -15 3 2 12 -6 22 -18 14 -17 21 -19 32 -9 8
6 25 9 38 7 13 -2 29 0 37 6 17 15 16 -1 -1 -23 -14 -19 -32 -25 -21 -8 3 5 1
10 -4 10 -15 0 -14 -17 1 -26 7 -4 18 2 26 14 8 12 19 22 24 22 5 0 -1 -15
-13 -33 -12 -17 -16 -26 -9 -20 18 17 31 16 24 0 -3 -8 5 -25 16 -38 18 -21
20 -21 11 -3 -21 43 47 86 69 45 13 -26 13 -27 -11 -28 -17 -2 -18 1 -9 13 9
10 9 14 1 14 -6 0 -11 -6 -11 -12 0 -10 -2 -10 -9 0 -6 11 -10 10 -15 -4 -4
-9 -2 -22 4 -28 8 -8 9 -5 4 9 -7 18 -6 19 10 6 17 -14 17 -16 -1 -29 -17 -14
-17 -14 1 -8 13 5 17 2 13 -9 -4 -8 -1 -17 5 -21 7 -4 8 -3 4 4 -9 15 -1 15
25 1 12 -6 18 -17 15 -25 -4 -9 -2 -12 5 -8 6 4 15 0 20 -7 7 -10 8 -7 7 10
-2 13 2 26 8 28 6 2 10 -8 9 -27 -1 -16 2 -30 7 -30 5 0 7 16 5 36 -4 27 -2
34 8 30 10 -3 12 0 8 12 -6 14 -4 15 9 4 13 -10 17 -10 21 2 4 11 1 13 -11 9
-13 -5 -14 -3 -5 7 6 7 16 9 22 6 14 -9 7 -89 -9 -94 -9 -3 -10 0 -4 9 6 12 5
12 -8 1 -16 -13 -22 -55 -7 -46 4 2 11 -2 16 -10 7 -13 14 -11 42 11 24 19 29
28 20 34 -8 4 -11 10 -8 13 3 3 15 -6 28 -20 12 -14 16 -24 9 -22 -8 2 -25 -6
-40 -18 l-26 -20 21 -14 c20 -12 21 -12 8 4 -13 16 -13 17 5 14 10 -1 24 -11
30 -22 8 -13 13 -15 18 -7 4 6 2 11 -5 11 -8 0 -9 3 0 14 9 11 6 13 -14 11
-14 -2 -25 1 -25 5 0 15 14 18 37 9 16 -6 21 -13 16 -25 -4 -10 -2 -15 3 -11
6 3 16 -3 23 -15 7 -11 8 -17 2 -13 -6 3 -11 2 -11 -3 0 -6 11 -13 24 -16 18
-4 24 -12 21 -26 -2 -11 1 -19 8 -17 6 1 12 -4 13 -10 1 -7 2 -16 3 -19 0 -4
9 0 18 7 14 12 16 12 8 0 -4 -7 6 -3 24 10 29 21 44 38 21 24 -5 -3 -10 -1
-10 6 0 7 8 9 21 6 17 -5 18 -3 7 10 -10 12 -9 17 5 28 9 6 13 16 9 20 -4 5
-2 5 4 2 6 -4 23 16 40 48 25 49 54 73 54 45 0 -5 -6 -9 -12 -7 -8 1 -12 -7
-11 -20 1 -11 -4 -27 -12 -33 -17 -14 -20 -30 -4 -30 5 0 7 5 4 10 -3 6 -2 10
4 10 5 0 12 -6 15 -12 3 -7 3 -2 -1 12 -5 22 -4 23 10 11 9 -7 14 -18 10 -25
-3 -6 3 -2 15 8 24 21 31 36 8 16 -12 -9 -15 -8 -13 9 1 24 2 24 26 12 11 -6
22 -6 32 1 11 8 10 9 -4 4 -19 -6 -67 33 -67 54 0 6 -6 8 -12 5 -7 -4 -5 0 4
8 10 8 16 17 13 20 -3 4 -2 4 2 1 4 -3 8 -13 8 -22 0 -9 6 -16 14 -14 8 2 11
-3 8 -12 -8 -21 10 -31 28 -16 11 9 15 9 15 1 0 -6 5 -11 11 -11 8 0 8 5 -1
15 -15 18 1 20 18 3 8 -8 12 -8 12 -1 0 20 -32 24 -52 7 -10 -10 -21 -15 -24
-12 -8 9 47 48 59 41 5 -3 24 -7 41 -9 20 -3 26 -1 17 5 -9 6 -10 11 -2 15 6
4 11 12 11 19 0 6 -7 1 -16 -11 -8 -12 -18 -22 -22 -22 -11 0 -31 50 -22 55 5
3 11 -4 15 -15 4 -11 11 -17 17 -14 6 4 5 10 -3 15 -14 9 -12 10 14 13 6 0 12
10 12 20 0 11 5 21 11 23 6 2 9 -14 8 -42 -1 -25 2 -43 6 -40 5 3 7 21 6 40
-2 23 1 34 8 32 6 -2 11 -13 11 -24 0 -12 4 -25 8 -29 4 -5 5 -1 2 8 -4 11 0
18 15 23 16 5 19 10 10 20 -9 11 -7 14 9 12 15 -1 20 -6 16 -16 -5 -12 -2 -11
13 2 10 9 22 14 25 10 4 -3 7 -2 7 4 0 11 -85 11 -96 0 -10 -9 -42 10 -54 33
-8 16 -7 19 10 17 11 -1 19 -7 17 -16 -3 -20 18 -24 36 -6 17 17 32 20 22 5
-4 -6 7 -8 27 -6 18 2 40 -1 48 -7 13 -11 13 -10 1 6 -8 10 -22 16 -31 14 -10
-2 -25 0 -34 5 -13 7 -23 5 -37 -8 -10 -9 -22 -15 -25 -12 -8 9 47 48 59 41
17 -11 57 -12 57 -1 0 5 -8 7 -19 3 -22 -7 -35 27 -18 44 17 17 31 13 17 -4
-7 -9 -10 -18 -6 -22 3 -3 6 0 6 8 0 12 2 11 11 -1 9 -12 10 -12 5 3 -4 12 -2
17 6 14 7 -2 12 -11 12 -20 -1 -9 2 -15 6 -12 4 3 11 -2 14 -11 9 -24 7 -28
-9 -14 -9 7 -15 8 -15 2 0 -14 28 -23 35 -11 4 5 12 6 18 3 7 -4 2 3 -11 15
-16 16 -21 29 -16 43 5 17 3 20 -10 15 -9 -4 -27 4 -43 18 -16 13 -23 25 -17
25 6 0 17 -6 23 -14 6 -7 26 -13 44 -12 17 2 37 -1 43 -6 7 -5 14 -3 17 6 4
11 1 13 -10 9 -12 -5 -14 -3 -8 8 6 11 5 12 -6 2 -7 -7 -18 -13 -23 -13 -6 0
2 11 17 25 28 27 38 47 12 25 -9 -7 -18 -10 -22 -6 -4 3 2 13 13 22 10 8 14
13 8 10 -7 -3 -18 2 -25 11 -12 14 -11 15 11 9 17 -5 21 -4 11 2 -8 6 -10 15
-5 23 6 10 3 10 -11 -1 -12 -10 -41 -15 -86 -15 -57 -1 -65 1 -51 12 11 8 13
15 6 20 -5 5 -20 25 -33 46 -13 21 -29 44 -37 52 -8 8 -15 18 -15 22 0 4 -9
18 -19 31 -25 28 -25 35 0 27 12 -4 20 -2 20 5 0 6 -4 8 -10 5 -5 -3 -10 -1
-10 4 0 6 5 11 10 11 6 0 10 5 10 10 0 6 -12 3 -26 -6 -22 -15 -27 -15 -35 -3
-5 8 -9 19 -9 26 0 6 -9 18 -20 26 -17 12 -18 16 -7 26 11 9 17 7 28 -6 12
-15 12 -16 -4 -10 -10 4 -16 3 -12 -2 8 -14 76 -6 86 10 12 20 11 25 -8 40
-14 12 -16 12 -9 0 6 -9 5 -12 -4 -9 -16 5 -21 68 -7 86 5 7 14 9 21 4 6 -5
20 -9 32 -9 18 -1 21 4 19 40 -1 45 -16 51 -45 20 -13 -14 -11 -14 13 1 27 17
28 17 23 -8 -7 -39 -15 -47 -35 -36 -10 5 -22 6 -26 2 -5 -4 -5 1 -2 10 4 12
2 15 -9 11 -10 -4 -12 -9 -4 -18 7 -9 5 -16 -7 -26 -15 -12 -16 -12 -10 3 3
10 1 20 -5 24 -6 4 -8 3 -4 -4 8 -13 -43 -54 -58 -45 -7 4 -7 1 1 -7 10 -11
15 -11 28 0 8 7 15 8 15 2 0 -5 -7 -15 -15 -22 -13 -10 -19 -10 -34 4 -21 19
-41 18 -58 -4 -10 -13 -13 -11 -22 13 -6 15 -16 27 -23 27 -10 0 -10 -2 -1 -8
7 -4 14 -17 16 -27 1 -11 7 -27 12 -35 8 -13 7 -13 -8 -1 -11 9 -17 10 -17 2
0 -6 -7 -11 -16 -11 -8 0 -12 -4 -9 -10 3 -6 -1 -7 -9 -4 -9 3 -16 2 -16 -4 0
-5 -7 -12 -15 -16 -13 -5 -13 -2 1 19 15 23 21 27 41 24 10 -1 25 30 18 41 -8
13 -25 13 -25 -1 0 -5 5 -7 10 -4 6 3 10 2 10 -3 0 -8 -22 -22 -33 -22 -1 0
-2 15 -2 33 0 36 19 76 31 64 4 -4 2 -13 -4 -19 -7 -7 -12 -16 -12 -22 0 -5
11 4 24 19 23 27 24 29 8 51 -9 12 -20 20 -24 17 -5 -2 -8 1 -8 8 0 7 -8 5
-20 -6 -11 -10 -20 -13 -20 -7 0 7 9 17 20 24 11 7 20 17 20 22 0 4 -7 2 -16
-5 -15 -12 -16 -11 -11 11 4 14 4 19 1 12 -3 -6 -9 -10 -13 -8 -9 6 -7 -66 2
-81 4 -6 -2 -22 -12 -34 -19 -23 -20 -24 -38 -5 -17 18 -17 18 4 12 24 -8 36
5 27 27 -3 9 -15 14 -30 12 -15 -1 -23 2 -21 9 2 6 14 10 26 9 11 -2 21 2 21
8 0 5 -4 7 -10 4 -5 -3 -10 -1 -10 4 0 6 5 11 10 11 6 0 10 5 10 11 0 8 -4 8
-15 -1 -15 -12 -35 -6 -35 11 0 6 4 8 9 5 12 -8 41 4 41 16 0 5 -7 5 -17 -1
-13 -7 -23 -5 -38 7 -14 12 -17 13 -9 2z m-376 -70 c0 -5 -2 -10 -4 -10 -3 0
-8 5 -11 10 -3 6 -1 10 4 10 6 0 11 -4 11 -10z m521 -31 c21 -18 22 -19 4 -15
-11 3 -27 1 -35 -4 -8 -5 -11 -10 -6 -10 5 0 1 -9 -9 -20 -10 -11 -14 -20 -8
-20 16 0 10 -53 -10 -83 -10 -15 -15 -32 -12 -37 3 -6 2 -10 -4 -10 -19 0 -23
22 -6 40 9 10 14 24 10 29 -3 6 1 14 9 17 9 3 13 10 10 16 -3 5 -12 1 -19 -9
-7 -10 -11 -21 -8 -26 3 -5 -3 -17 -12 -27 -9 -10 -14 -24 -10 -29 3 -6 3 -11
-1 -11 -7 0 -74 40 -74 44 0 10 42 1 47 -10 4 -12 9 -10 22 8 9 13 15 27 13
32 -2 5 5 17 14 27 9 10 13 23 9 28 -3 6 -2 11 4 11 9 0 22 28 26 55 4 22 5
25 14 25 5 0 19 -9 32 -21z m-496 -39 c-18 -20 -13 -42 8 -34 7 2 13 -4 14
-16 2 -17 -1 -18 -17 -10 -24 13 -42 44 -32 55 4 5 2 5 -5 1 -7 -4 -10 -13 -7
-20 3 -8 -3 -12 -18 -11 -25 2 -32 30 -8 31 27 1 49 15 56 37 6 19 7 19 16 3
7 -13 5 -23 -7 -36z m415 18 c0 -6 -7 -8 -15 -4 -8 3 -22 3 -31 -1 -13 -5 -13
-7 -2 -14 7 -5 13 -17 14 -27 1 -17 -6 -19 -50 -18 -48 1 -65 9 -66 30 0 4 11
1 24 -8 18 -12 26 -12 29 -3 4 9 8 9 14 0 6 -8 12 -8 25 1 16 12 16 14 -7 26
-14 7 -25 17 -25 22 0 5 4 6 10 3 5 -3 17 -2 26 3 20 11 54 4 54 -10z m-320
-48 c0 -5 -4 -10 -10 -10 -5 0 -10 5 -10 10 0 6 5 10 10 10 6 0 10 -4 10 -10z
m586 2 c6 -4 10 -17 9 -30 -1 -13 2 -25 7 -28 15 -10 8 -23 -9 -18 -15 5 -15
4 -3 -5 11 -7 19 -6 32 6 10 9 18 11 18 6 0 -22 -28 -35 -50 -23 -20 11 -24
39 -6 51 4 4 3 10 -3 13 -6 4 -11 2 -11 -3 0 -20 -3 -26 -19 -38 -20 -15 -34
-17 -26 -3 3 6 0 13 -9 16 -8 3 -17 13 -21 22 -5 13 -2 13 15 -3 19 -18 21
-18 40 0 12 10 18 25 16 32 -6 14 3 17 20 5z m-636 -51 c-12 -23 -18 -25 -40
-11 -8 5 -11 13 -6 17 5 4 11 2 13 -5 4 -10 9 -7 20 8 19 26 29 19 13 -9z
m128 -18 c-40 -60 -37 -57 -43 -51 -3 3 3 16 13 29 11 13 17 29 15 35 -3 8 21
26 44 33 1 1 -12 -20 -29 -46z m-98 17 c0 -5 -4 -10 -10 -10 -5 0 -10 5 -10
10 0 6 5 10 10 10 6 0 10 -4 10 -10z m60 -30 c0 -3 -4 -12 -10 -20 -5 -9 -5
-19 2 -27 7 -9 6 -14 -6 -19 -9 -3 -13 -10 -10 -15 3 -5 0 -8 -7 -7 -7 2 -13
-4 -14 -12 0 -18 -27 -60 -38 -60 -4 0 -2 10 4 22 9 17 9 24 -3 32 -8 6 -13
22 -11 36 2 14 4 33 4 42 0 9 6 15 13 12 7 -3 18 2 25 10 11 14 51 19 51 6z
m-155 -19 c3 -7 -2 -22 -11 -32 -9 -10 -13 -23 -9 -28 3 -6 2 -11 -4 -11 -21
0 -23 24 -4 39 20 16 20 17 -1 33 l-21 17 22 -2 c12 -1 25 -8 28 -16z m-81
-34 c-3 -7 0 -5 8 3 7 8 22 16 33 18 19 2 19 2 -2 -17 -21 -18 -21 -19 -4 -35
10 -9 23 -16 29 -16 6 0 10 -9 9 -20 -1 -11 -5 -20 -10 -20 -5 0 1 -9 14 -19
l24 -20 -22 2 c-13 1 -23 5 -23 10 0 4 -5 5 -11 2 -17 -11 -1 -19 39 -21 52
-2 52 -2 46 -19 -4 -8 -14 -15 -23 -15 -13 0 -14 2 -2 9 10 7 0 9 -31 7 -41
-2 -46 0 -45 18 0 12 5 24 10 27 19 13 12 44 -16 71 -17 15 -34 28 -38 28 -5
0 -6 7 -3 15 4 8 10 12 15 9 5 -3 7 -11 3 -17z m147 -80 c-6 -8 -9 -22 -5 -31
3 -9 2 -16 -4 -16 -19 0 -42 12 -42 22 0 6 8 4 17 -3 13 -11 15 -11 9 -1 -5 8
-1 21 10 33 19 21 34 18 15 -4z m-156 -62 c2 -14 -1 -25 -5 -25 -14 0 -21 18
-11 25 6 3 7 13 4 23 -3 9 -3 14 2 10 4 -4 9 -19 10 -33z m735 29 c0 -8 -19
-13 -24 -6 -3 5 1 9 9 9 8 0 15 -2 15 -3z m-628 -58 c18 -8 15 -26 -3 -26 -6
0 -8 4 -5 9 3 5 -1 11 -9 14 -10 4 -12 1 -8 -11 4 -9 11 -20 17 -24 7 -5 5 -8
-5 -8 -9 0 -19 10 -22 21 -4 15 -11 20 -21 16 -9 -4 -16 -2 -16 2 0 18 39 22
72 7z m-35 -42 c9 -20 9 -26 -3 -31 -8 -3 -14 -10 -14 -16 0 -7 4 -7 12 1 19
19 29 14 16 -7 -7 -11 -14 -18 -18 -16 -3 2 -5 -26 -6 -61 0 -35 4 -64 9 -64
4 0 5 10 1 22 -6 20 -5 21 9 9 9 -7 14 -17 11 -22 -3 -5 0 -9 5 -9 6 0 11 6
11 13 0 7 10 13 23 14 21 2 21 1 3 -12 -18 -14 -18 -14 0 -14 50 -1 69 -10 95
-47 16 -21 32 -47 35 -56 4 -10 14 -18 23 -19 11 0 10 -3 -6 -11 -13 -6 -23
-15 -23 -19 0 -4 -13 -17 -30 -29 l-30 -21 -30 21 c-16 11 -27 26 -24 33 7 18
41 18 41 1 0 -9 -6 -13 -16 -9 -8 3 -12 3 -8 -2 14 -13 66 -12 77 2 8 9 8 15
0 20 -5 3 -10 11 -10 17 0 6 6 6 15 -2 9 -7 18 -10 22 -6 3 3 1 6 -6 6 -7 0
-9 5 -5 12 5 7 3 8 -6 3 -10 -6 -12 -4 -7 8 3 9 1 19 -5 23 -6 4 -8 3 -5 -3 4
-6 -2 -22 -13 -34 l-20 -24 -27 32 c-23 27 -33 32 -57 27 -25 -4 -27 -3 -17
10 7 8 19 12 27 9 8 -3 14 0 14 6 0 6 -3 10 -7 10 -19 -3 -36 2 -29 8 14 14
46 13 47 -2 3 -36 5 -40 22 -37 11 2 15 -2 11 -12 -7 -19 15 -31 29 -16 9 9 7
15 -7 26 -17 12 -18 14 -3 14 9 0 17 5 17 10 0 7 -7 7 -20 0 -21 -11 -40 -6
-40 11 0 6 4 7 10 4 5 -3 18 -1 27 4 16 9 15 11 -7 11 -14 0 -50 2 -80 3 -37
3 -60 -1 -71 -10 -18 -15 -40 -14 -51 2 -16 21 -7 27 16 12 22 -15 25 -15 32
1 11 25 13 168 2 147 -6 -10 -17 -14 -31 -10 -19 5 -20 5 -4 -5 9 -6 22 -8 27
-5 6 3 10 2 10 -4 0 -14 -23 -19 -43 -9 -20 10 -37 3 -36 -15 0 -9 2 -9 6 1 2
6 9 12 14 12 6 0 7 -4 4 -10 -4 -6 6 -8 25 -6 20 2 29 -1 27 -8 -2 -6 -19 -10
-38 -9 -19 0 -28 -1 -22 -4 7 -2 14 -3 15 -1 2 2 14 -7 27 -19 24 -22 23 -53
-1 -53 -9 0 -9 3 0 12 9 9 4 16 -21 32 -17 11 -36 19 -40 18 -5 -1 -6 2 -2 8
4 6 2 17 -5 24 -8 11 -4 19 20 36 17 12 34 19 37 16 9 -9 44 25 37 35 -3 5 0
9 5 9 6 0 11 5 11 11 0 5 -4 7 -10 4 -11 -7 -14 8 -3 18 11 12 18 8 30 -19z
m93 -18 c0 -2 -7 -7 -16 -10 -8 -3 -12 -2 -9 4 6 10 25 14 25 6z m-210 -21
c-7 -8 -17 -15 -22 -15 -6 0 -5 7 2 15 7 8 17 15 22 15 6 0 5 -7 -2 -15z m150
-24 c0 -5 -6 -12 -12 -15 -7 -3 -3 -3 10 0 15 4 22 1 22 -10 0 -8 -6 -13 -13
-11 -18 7 -38 -28 -25 -46 8 -11 9 -10 4 4 -6 20 5 22 22 5 17 -17 15 -24 -8
-25 -34 -3 -44 31 -26 85 7 21 26 31 26 13z m630 3 c0 -8 -19 -13 -24 -6 -3 5
1 9 9 9 8 0 15 -2 15 -3z m226 -11 c-3 -6 0 -10 7 -8 15 5 53 -22 44 -31 -4
-4 -12 -2 -20 4 -7 6 -28 9 -47 7 -31 -4 -33 -3 -17 9 10 8 14 17 9 20 -9 5
-18 -6 -21 -27 -1 -13 -31 -66 -39 -71 -5 -3 -9 8 -10 24 0 16 3 32 9 35 5 3
6 -2 3 -12 -5 -17 -5 -17 6 0 7 10 9 21 6 24 -3 3 4 14 15 24 23 20 62 22 55
2z m82 3 c4 -4 7 -21 8 -37 2 -37 -28 -58 -53 -37 -18 15 -71 20 -79 7 -3 -5
3 -6 13 -2 16 6 16 5 4 -10 -7 -9 -18 -14 -25 -11 -6 3 -3 -1 6 -9 17 -13 17
-15 -1 -31 -19 -17 -19 -17 -16 16 3 37 14 68 24 69 42 5 56 3 75 -12 16 -13
26 -15 37 -7 12 8 11 9 -2 5 -12 -4 -16 2 -16 23 0 21 4 27 16 23 14 -4 14 -3
1 5 -9 7 -19 7 -26 2 -11 -10 -24 -4 -24 11 0 9 48 5 58 -5z m-900 -49 c7 -5
10 -13 7 -18 -4 -5 -2 -9 4 -9 12 0 35 -39 28 -47 -3 -3 -14 0 -24 7 -17 11
-17 11 2 5 12 -3 5 6 -17 25 -21 17 -38 35 -38 40 0 10 19 8 38 -3z m717 -50
c0 -13 -6 -31 -14 -41 -12 -15 -12 -16 5 -9 17 6 17 5 6 -10 -8 -8 -19 -14
-26 -11 -15 6 -18 41 -4 50 7 5 8 2 3 -6 -5 -9 -4 -11 4 -6 6 4 11 13 10 19
-3 22 1 37 9 37 4 0 8 -11 7 -23z m110 12 c4 -5 0 -18 -8 -27 -8 -9 -12 -23
-9 -31 3 -9 0 -11 -7 -6 -7 4 -20 0 -29 -8 -29 -25 -52 -18 -48 15 4 33 13 45
24 33 4 -4 2 -10 -5 -12 -9 -3 -9 -9 -1 -22 10 -16 12 -16 34 6 14 14 22 29
19 34 -7 11 2 29 15 29 5 0 12 -5 15 -11z m-975 -19 c8 -5 11 -13 6 -17 -5 -4
-11 -2 -13 5 -3 8 -11 5 -24 -10 -20 -25 -25 -18 -9 13 12 21 18 23 40 9z
m-50 -10 c0 -5 -5 -10 -11 -10 -8 0 -8 -4 1 -14 6 -8 19 -12 28 -9 15 6 15 4
4 -10 -23 -27 -59 3 -46 38 7 17 24 20 24 5z m145 -48 c3 -8 1 -20 -5 -27 -5
-6 -7 -14 -4 -18 3 -3 1 -14 -6 -24 -9 -13 -10 -14 -7 -2 3 9 1 21 -5 27 -8 8
-7 13 5 18 15 5 14 8 -6 24 l-22 19 22 -2 c12 -1 25 -8 28 -15z m229 10 c3 -5
-1 -9 -9 -9 -8 0 -12 4 -9 9 3 4 7 8 9 8 2 0 6 -4 9 -8z m493 -11 c1 -14 -3
-18 -15 -14 -15 4 -15 3 -2 -7 13 -10 12 -11 -3 -6 -10 3 -21 6 -23 6 -6 0 30
38 36 39 3 1 6 -8 7 -18z m40 -56 c-4 -11 -40 -11 -72 0 -12 4 -15 3 -8 -2 16
-11 20 -45 7 -50 -7 -2 -11 4 -10 14 0 10 -5 17 -11 16 -7 -2 -13 1 -13 6 0
16 31 41 42 35 17 -11 59 -13 53 -4 -3 5 -13 6 -23 3 -15 -6 -15 -5 -3 11 14
17 16 17 28 0 7 -10 12 -23 10 -29z m-647 5 c0 -5 -4 -10 -10 -10 -5 0 -10 5
-10 10 0 6 5 10 10 10 6 0 10 -4 10 -10z m637 -37 c2 -6 -6 -10 -18 -9 -12 0
-24 6 -26 12 -2 6 6 10 19 9 12 -1 23 -6 25 -12z m83 7 c0 -5 -2 -10 -4 -10
-3 0 -8 5 -11 10 -3 6 -1 10 4 10 6 0 11 -4 11 -10z m-164 -22 c-1 -10 -8 -24
-16 -31 -10 -10 -12 -9 -6 7 3 10 1 24 -5 32 -8 10 -6 13 10 11 13 -1 19 -7
17 -19z m-531 3 c8 -14 -10 -22 -30 -15 -13 5 -14 8 -3 15 17 11 26 11 33 0z
m505 -11 c0 -5 -5 -10 -10 -10 -6 0 -6 -7 2 -19 11 -18 12 -18 28 2 16 19 40
17 40 -4 0 -6 -5 -7 -11 -4 -5 4 -18 0 -27 -8 -9 -8 -25 -14 -34 -14 -15 0
-17 9 -9 60 2 11 21 9 21 -3z m-404 -45 c14 -14 11 -19 -9 -16 -4 1 -3 -7 3
-18 14 -26 13 -29 -11 -41 -21 -12 -49 1 -49 23 0 5 8 3 18 -6 13 -12 21 -13
32 -6 12 9 12 10 -2 5 -18 -5 -25 8 -9 18 4 3 7 17 6 31 -4 29 1 31 21 10z
m361 -67 c-1 -15 -17 -28 -17 -14 0 2 -2 11 -5 19 -4 8 0 14 9 14 8 0 14 -9
13 -19z"/>
<path d="M313 903 c-12 -13 -19 -23 -15 -23 4 0 2 -4 -4 -8 -8 -5 -5 -16 8
-37 14 -22 18 -24 13 -8 -4 15 0 26 16 37 13 9 20 19 16 22 -4 4 -15 -4 -26
-17 -11 -13 -20 -18 -21 -11 0 7 11 24 24 37 14 14 22 26 18 28 -4 2 -17 -7
-29 -20z"/>
<path d="M660 1179 c0 -5 5 -7 10 -4 6 3 10 8 10 11 0 2 -4 4 -10 4 -5 0 -10
-5 -10 -11z"/>
<path d="M1066 1157 c3 -10 9 -15 12 -12 3 3 0 11 -7 18 -10 9 -11 8 -5 -6z"/>
<path d="M170 1146 c4 -4 16 -4 26 2 16 9 14 10 -8 9 -15 -1 -23 -6 -18 -11z"/>
<path d="M1026 1141 c-3 -4 3 -18 13 -29 18 -21 18 -21 18 11 0 18 -2 26 -4
20 -3 -7 -9 -13 -14 -13 -6 0 -7 5 -4 10 3 6 4 10 1 10 -3 0 -7 -4 -10 -9z"/>
<path d="M1073 1105 c0 -35 -12 -44 -28 -22 -12 17 -13 15 -11 -17 1 -19 5
-38 9 -42 13 -13 7 -27 -6 -15 -8 6 -24 8 -37 6 -13 -2 -29 0 -37 6 -7 7 -13
8 -13 4 0 -4 8 -14 18 -22 16 -14 16 -14 0 -9 -24 7 -23 1 8 -29 15 -15 22
-30 17 -38 -4 -6 -8 -43 -8 -82 -1 -57 3 -78 23 -113 13 -24 29 -39 35 -35 6
4 8 1 5 -8 -3 -8 3 -26 14 -39 l21 -25 -8 25 c-7 22 -6 23 8 11 9 -7 14 -17
11 -22 -3 -5 -1 -9 5 -9 5 0 8 14 6 31 -3 23 0 29 11 25 8 -3 14 -1 14 5 0 6
-8 9 -17 7 -10 -2 -17 -9 -16 -15 1 -6 -9 -10 -22 -10 -14 0 -22 3 -19 8 8 13
64 41 64 32 0 -4 8 4 17 17 10 14 17 29 15 34 -2 5 3 13 10 18 9 6 7 8 -7 4
-16 -5 -21 -1 -21 14 0 12 5 19 13 16 7 -3 10 1 6 10 -4 11 -8 12 -20 3 -11
-10 -18 -9 -31 5 -16 17 -16 18 5 12 33 -10 49 25 23 49 -25 22 -27 43 -2 24
15 -12 16 -12 5 2 -8 9 -27 15 -53 14 -32 -1 -43 4 -55 22 -9 13 -11 23 -6 23
6 0 15 -8 20 -17 6 -10 11 -12 11 -5 0 6 5 12 11 12 5 0 7 -4 4 -10 -3 -5 -1
-10 5 -10 7 0 10 6 7 13 -2 6 -12 12 -22 12 -10 0 -20 5 -22 12 -3 8 4 11 17
8 28 -5 51 -25 44 -36 -3 -5 -1 -9 4 -9 6 0 13 7 16 16 3 9 2 12 -5 9 -13 -9
-8 27 6 38 6 5 4 7 -5 4 -8 -2 -14 -10 -12 -16 1 -6 -2 -11 -8 -11 -13 0 -51
42 -44 49 3 3 11 -1 18 -10 10 -14 15 -15 29 -4 12 9 14 15 7 20 -6 4 -8 16
-5 28 5 18 4 19 -5 7 -8 -12 -10 -8 -6 18 2 17 1 32 -4 32 -4 0 -7 -11 -7 -25z
m10 -53 c5 -8 7 -16 4 -18 -6 -6 -47 18 -47 27 0 12 35 4 43 -9z m-68 -60
c-20 -17 -20 -17 5 -43 14 -14 35 -24 48 -23 22 1 28 -6 15 -19 -3 -4 -12 -2
-20 4 -7 6 -13 7 -13 2 0 -5 -9 -9 -19 -10 -14 -1 -18 3 -14 15 4 14 3 15 -5
2 -7 -9 -7 -19 -2 -26 10 -11 4 -24 -11 -24 -9 0 -5 42 5 59 5 7 1 20 -8 30
-21 23 -12 46 17 48 22 2 22 2 2 -15z m108 -100 c9 -9 13 -22 9 -28 -8 -12
-92 -13 -92 -2 0 9 12 11 60 9 25 0 31 2 21 8 -18 11 -70 6 -84 -8 -14 -14 1
-31 21 -24 15 6 15 5 3 -11 -14 -16 -15 -16 -34 2 -17 18 -18 23 -6 39 8 11
24 19 37 18 13 -1 25 2 28 7 8 13 19 10 37 -10z m-89 -68 c15 -14 27 -26 25
-27 -2 -2 -13 -9 -23 -17 -18 -14 -19 -13 -13 3 8 22 -2 49 -15 41 -6 -4 -5
-10 3 -16 10 -7 11 -11 2 -14 -8 -4 -6 -15 8 -39 23 -38 40 -47 60 -34 12 8
12 10 -1 8 -25 -2 -40 1 -40 9 0 4 20 7 45 8 53 1 57 -6 13 -26 -47 -22 -61
-19 -82 15 -18 28 -31 115 -17 115 3 0 19 -12 35 -26z m62 -20 c1 -22 -3 -30
-16 -30 -13 0 -17 7 -15 31 4 39 3 37 17 33 7 -3 13 -18 14 -34z m34 -4 c0 -5
-7 -10 -15 -10 -8 0 -15 5 -15 10 0 6 7 10 15 10 8 0 15 -4 15 -10z m-50 -35
c8 0 21 4 28 9 9 6 18 4 28 -5 13 -13 7 -15 -46 -15 -33 0 -60 3 -60 7 0 12
13 18 24 11 6 -3 18 -7 26 -7z"/>
<path d="M155 1070 c3 -5 8 -10 11 -10 2 0 4 5 4 10 0 6 -5 10 -11 10 -5 0 -7
-4 -4 -10z"/>
<path d="M975 1070 c-3 -5 -1 -10 4 -10 6 0 11 5 11 10 0 6 -2 10 -4 10 -3 0
-8 -4 -11 -10z"/>
<path d="M757 1043 c-2 -5 2 -18 8 -31 11 -20 13 -21 19 -7 8 23 8 25 -6 23
-7 -2 -12 3 -10 10 2 13 -4 16 -11 5z"/>
<path d="M951 891 c-8 -5 -21 -7 -30 -4 -14 4 -14 3 -1 -6 12 -9 13 -11 1 -11
-8 0 -12 -2 -9 -5 7 -8 58 16 58 27 0 10 -1 10 -19 -1z"/>
<path d="M1156 728 c-9 -14 -13 -34 -10 -48 3 -14 6 -31 6 -37 2 -17 6 -16 26
4 16 16 16 16 -2 10 -14 -5 -17 -3 -13 8 4 8 2 17 -3 20 -6 4 -10 11 -10 18 0
8 3 8 12 -1 7 -7 17 -12 23 -12 5 0 1 7 -10 16 -17 12 -18 16 -5 24 8 5 12 12
8 15 -4 4 -13 -4 -22 -17z"/>
<path d="M70 725 c0 -5 5 -17 10 -25 5 -8 10 -10 10 -5 0 6 -5 17 -10 25 -5 8
-10 11 -10 5z"/>
<path d="M1116 661 c-4 -6 -2 -11 4 -11 6 0 8 -4 5 -10 -3 -5 -1 -10 4 -10 13
0 14 10 2 29 -6 9 -11 10 -15 2z"/>
<path d="M33 545 c0 -8 4 -15 9 -15 4 0 8 4 8 9 0 6 -4 12 -8 15 -5 3 -9 -1
-9 -9z"/>
<path d="M1184 481 c4 -5 1 -11 -5 -13 -6 -2 0 -12 12 -23 12 -11 19 -14 14
-6 -6 11 -4 13 8 8 12 -4 14 -2 10 10 -5 12 -3 14 7 8 9 -6 11 -4 6 4 -6 9
-13 8 -28 -6 -20 -18 -20 -17 -14 5 5 14 3 22 -4 22 -6 0 -9 -4 -6 -9z"/>
<path d="M85 400 c-3 -6 1 -7 9 -4 18 7 21 14 7 14 -6 0 -13 -4 -16 -10z"/>
<path d="M150 346 c0 -2 7 -7 16 -10 8 -3 12 -2 9 4 -6 10 -25 14 -25 6z"/>
<path d="M390 270 c-8 -5 -12 -11 -9 -14 2 -3 11 -1 19 4 8 5 12 11 9 14 -2 3
-11 1 -19 -4z"/>
<path d="M732 129 c-7 -12 -18 -17 -25 -12 -7 4 -7 1 2 -10 14 -18 26 -24 17
-8 -7 11 20 35 32 28 4 -3 14 -1 22 5 13 8 12 9 -1 5 -9 -3 -21 -1 -26 4 -5 5
-14 0 -21 -12z"/>
<path d="M520 125 c-7 -9 -8 -15 -2 -15 5 0 12 7 16 15 3 8 4 15 2 15 -2 0 -9
-7 -16 -15z"/>
<path d="M530 93 c0 -1 8 -7 18 -12 13 -7 19 -6 19 2 0 7 -9 13 -19 13 -10 0
-18 -1 -18 -3z"/>
</g>
</svg>
